<svg width="29.992004" height="18.991760" viewBox="0 0 29.992 18.9918" fill="none" xmlns="http://www.w3.org/2000/svg" xmlns:xlink="http://www.w3.org/1999/xlink">
	<desc>
			Created with Pixso.
	</desc>
	<defs/>
	<path id="Down icon" d="M14.9648 5.52802L22.9694 0.336853C23.6622 -0.112305 24.7856 -0.112305 25.4785 0.336853C26.1713 0.786194 26.1713 1.51459 25.4785 1.96393L16.6971 7.65875C16.2151 7.97156 15.5248 8.06671 14.916 7.94427C14.3356 8.03796 13.6962 7.93768 13.2426 7.64355L4.52008 1.98669C3.83185 1.54004 3.83185 0.816711 4.52008 0.370422C5.20819 -0.0759888 6.32397 -0.0759888 7.01215 0.370422L14.9648 5.52802ZM14.947 15.5984L25.8622 8.46057C26.8069 7.84277 28.3386 7.84277 29.2834 8.46057C30.2282 9.07825 30.2282 10.08 29.2834 10.6978L17.309 18.5284C16.6517 18.9582 15.7103 19.089 14.8801 18.9208C14.0888 19.0496 13.2167 18.9117 12.5981 18.5073L0.703796 10.7288C-0.234619 10.1154 -0.234619 9.12048 0.703796 8.50659C1.64221 7.89294 3.1637 7.89294 4.10211 8.50659L14.947 15.5984Z" clip-rule="evenodd" fill="#FFFFFF" fill-opacity="1.000000" fill-rule="evenodd"/>
</svg>
