<svg width="60.000000" height="48.908691" viewBox="0 0 60 48.9087" fill="none" xmlns="http://www.w3.org/2000/svg" xmlns:xlink="http://www.w3.org/1999/xlink">
	<desc>
			Created with Pixso.
	</desc>
	<defs>
		<clipPath id="clip235903_64">
			<rect id="optimization" rx="0.000000" width="59.000000" height="47.908676" transform="translate(0.500000 0.500000)" fill="white" fill-opacity="0"/>
		</clipPath>
		<linearGradient x1="29.994965" y1="89.841255" x2="29.994965" y2="1.300049" id="paint_linear_235903_77_0" gradientUnits="userSpaceOnUse">
			<stop stop-color="#FFFFFF" stop-opacity="0.101961"/>
			<stop offset="0.130000" stop-color="#FFFFFF" stop-opacity="0.078431"/>
			<stop offset="1.000000" stop-color="#FFFFFF" stop-opacity="0.050980"/>
		</linearGradient>
		<linearGradient x1="29.038254" y1="19.918129" x2="29.038254" y2="10.281331" id="paint_linear_235903_81_0" gradientUnits="userSpaceOnUse">
			<stop stop-color="#8BC6FF"/>
			<stop offset="1.000000" stop-color="#008BFF"/>
		</linearGradient>
		<linearGradient x1="29.038254" y1="50.823158" x2="29.038254" y2="37.174400" id="paint_linear_235903_82_0" gradientUnits="userSpaceOnUse">
			<stop stop-color="#8BC6FF"/>
			<stop offset="1.000000" stop-color="#008BFF"/>
		</linearGradient>
		<linearGradient x1="30.786386" y1="30.828106" x2="48.869377" y2="30.828106" id="paint_linear_235903_83_0" gradientUnits="userSpaceOnUse">
			<stop stop-color="#8BC6FF"/>
			<stop offset="1.000000" stop-color="#008BFF"/>
		</linearGradient>
		<linearGradient x1="10.257621" y1="30.827190" x2="43.388271" y2="30.827190" id="paint_linear_235903_84_0" gradientUnits="userSpaceOnUse">
			<stop stop-color="#8BC6FF"/>
			<stop offset="1.000000" stop-color="#008BFF"/>
		</linearGradient>
		<linearGradient x1="45.503731" y1="-6.193311" x2="54.132957" y2="-14.825036" id="paint_linear_235903_85_0" gradientUnits="userSpaceOnUse">
			<stop stop-color="#8BC6FF"/>
			<stop offset="1.000000" stop-color="#008BFF"/>
		</linearGradient>
		<linearGradient x1="45.752445" y1="18.387621" x2="63.131321" y2="1.013763" id="paint_linear_235903_86_0" gradientUnits="userSpaceOnUse">
			<stop stop-color="#8BC6FF"/>
			<stop offset="1.000000" stop-color="#008BFF"/>
		</linearGradient>
		<linearGradient x1="-5.772423" y1="36.772545" x2="12.028828" y2="54.577271" id="paint_linear_235903_87_0" gradientUnits="userSpaceOnUse">
			<stop stop-color="#8BC6FF"/>
			<stop offset="1.000000" stop-color="#008BFF"/>
		</linearGradient>
		<linearGradient x1="15.592785" y1="17.577557" x2="36.654602" y2="38.639427" id="paint_linear_235903_88_0" gradientUnits="userSpaceOnUse">
			<stop stop-color="#8BC6FF"/>
			<stop offset="1.000000" stop-color="#008BFF"/>
		</linearGradient>
		<linearGradient x1="14.221809" y1="30.827156" x2="43.561768" y2="30.827156" id="paint_linear_235903_89_0" gradientUnits="userSpaceOnUse">
			<stop stop-color="#8BC6FF"/>
			<stop offset="1.000000" stop-color="#008BFF"/>
		</linearGradient>
		<linearGradient x1="36.599174" y1="38.309921" x2="18.395609" y2="20.636600" id="paint_linear_235903_90_0" gradientUnits="userSpaceOnUse">
			<stop stop-color="#8BC6FF"/>
			<stop offset="1.000000" stop-color="#0079FF"/>
		</linearGradient>
		<linearGradient x1="32.028862" y1="27.745438" x2="24.363121" y2="35.641117" id="paint_linear_235903_91_0" gradientUnits="userSpaceOnUse">
			<stop stop-color="#8BC6FF"/>
			<stop offset="1.000000" stop-color="#0079FF"/>
		</linearGradient>
		<linearGradient x1="27.835247" y1="30.437220" x2="31.191992" y2="30.437220" id="paint_linear_235903_92_0" gradientUnits="userSpaceOnUse">
			<stop stop-color="#8BC6FF" stop-opacity="0.301961"/>
			<stop offset="1.000000" stop-color="#8FD4FF" stop-opacity="0.301961"/>
		</linearGradient>
	</defs>
	<rect id="optimization" rx="0.000000" width="59.000000" height="47.908676" transform="translate(0.500000 0.500000)" fill="#FFFFFF" fill-opacity="0"/>
	<g clip-path="url(#clip235903_64)">
		<path id="Vector" d="M0 45.98L60 45.98L60 0L0 0L0 45.98Z" fill="#A3A3A3" fill-opacity="1.000000" fill-rule="nonzero"/>
		<path id="Vector" d="M58.8 44.82L1.04 44.82L1.04 1.16L58.8 1.16L58.8 44.82Z" fill="#AFAFAF" fill-opacity="1.000000" fill-rule="nonzero"/>
		<path id="Vector" d="M56.75 41.88L2.77 41.88L2.77 9.34L56.75 9.34L56.75 41.88Z" fill="#CFD8E5" fill-opacity="1.000000" fill-rule="nonzero"/>
		<path id="Vector" d="M55.96 41.08L3.4 41.08L3.4 10.14L55.96 10.14L55.96 41.08Z" fill="#E2E9F2" fill-opacity="1.000000" fill-rule="nonzero"/>
		<path id="Vector" d="M56.75 5.15C56.75 6.83 55.39 8.19 53.71 8.19C52.04 8.19 50.68 6.83 50.68 5.15C50.68 3.48 52.04 2.12 53.71 2.12C55.39 2.12 56.75 3.48 56.75 5.15Z" fill="#A3A3A3" fill-opacity="1.000000" fill-rule="nonzero"/>
		<path id="Vector" d="M56.32 5.15C56.32 6.59 55.15 7.76 53.71 7.76C52.27 7.76 51.1 6.59 51.1 5.15C51.1 3.71 52.27 2.55 53.71 2.55C55.15 2.55 56.32 3.71 56.32 5.15Z" fill="#FF7031" fill-opacity="1.000000" fill-rule="nonzero"/>
		<path id="Vector" d="M48.86 5.15C48.86 6.83 47.5 8.19 45.82 8.19C44.14 8.19 42.78 6.83 42.78 5.15C42.78 3.48 44.14 2.12 45.82 2.12C47.5 2.12 48.86 3.48 48.86 5.15Z" fill="#A3A3A3" fill-opacity="1.000000" fill-rule="nonzero"/>
		<path id="Vector" d="M48.43 5.15C48.43 6.59 47.26 7.76 45.82 7.76C44.38 7.76 43.21 6.59 43.21 5.15C43.21 3.71 44.38 2.55 45.82 2.55C47.26 2.55 48.43 3.71 48.43 5.15Z" fill="#E2E9F2" fill-opacity="1.000000" fill-rule="nonzero"/>
		<path id="Vector" d="M40.85 5.15C40.85 6.83 39.49 8.19 37.82 8.19C36.14 8.19 34.78 6.83 34.78 5.15C34.78 3.48 36.14 2.12 37.82 2.12C39.49 2.12 40.85 3.48 40.85 5.15Z" fill="#A3A3A3" fill-opacity="1.000000" fill-rule="nonzero"/>
		<path id="Vector" d="M40.42 5.15C40.42 6.59 39.26 7.76 37.82 7.76C36.38 7.76 35.21 6.59 35.21 5.15C35.21 3.71 36.38 2.55 37.82 2.55C39.26 2.55 40.42 3.71 40.42 5.15Z" fill="#E2E9F2" fill-opacity="1.000000" fill-rule="nonzero"/>
		<path id="Vector" d="M0 45.98L60 45.98L60 0L0 0L0 45.98Z" fill="url(#paint_linear_235903_77_0)" fill-opacity="1.000000" fill-rule="nonzero"/>
		<path id="Vector" d="M5.7 0L39.56 45.98L53.67 45.98L19.81 0L5.7 0Z" fill="#FFFFFF" fill-opacity="0.203922" fill-rule="nonzero"/>
		<path id="Vector" d="M26.69 0L59.99 45.23L59.99 35.65L33.75 0L26.69 0Z" fill="#FFFFFF" fill-opacity="0.203922" fill-rule="nonzero"/>
		<path id="Vector" d="M25.62 19.56L32.44 19.56L32.44 12.74L25.62 12.74L25.62 19.56Z" fill="url(#paint_linear_235903_81_0)" fill-opacity="1.000000" fill-rule="nonzero"/>
		<path id="Vector" d="M25.62 48.9L32.44 48.9L32.44 42.08L25.62 42.08L25.62 48.9Z" fill="url(#paint_linear_235903_82_0)" fill-opacity="1.000000" fill-rule="nonzero"/>
		<path id="Vector" d="M40.14 34.23L46.97 34.23L46.97 27.41L40.14 27.41L40.14 34.23Z" fill="url(#paint_linear_235903_83_0)" fill-opacity="1.000000" fill-rule="nonzero"/>
		<path id="Vector" d="M10.81 34.23L17.63 34.23L17.63 27.41L10.81 27.41L10.81 34.23Z" fill="url(#paint_linear_235903_84_0)" fill-opacity="1.000000" fill-rule="nonzero"/>
		<path id="Vector" d="M34.48 20.55L39.31 25.38L44.14 20.55L39.31 15.73L34.48 20.55Z" fill="url(#paint_linear_235903_85_0)" fill-opacity="1.000000" fill-rule="nonzero"/>
		<path id="Vector" d="M13.74 41.3L18.57 46.13L23.39 41.3L18.57 36.47L13.74 41.3Z" fill="url(#paint_linear_235903_86_0)" fill-opacity="1.000000" fill-rule="nonzero"/>
		<path id="Vector" d="M34.38 41.2L39.21 46.02L44.03 41.2L39.21 36.37L34.38 41.2Z" fill="url(#paint_linear_235903_87_0)" fill-opacity="1.000000" fill-rule="nonzero"/>
		<path id="Vector" d="M13.64 20.45L18.46 25.27L23.29 20.45L18.46 15.62L13.64 20.45Z" fill="url(#paint_linear_235903_88_0)" fill-opacity="1.000000" fill-rule="nonzero"/>
		<path id="Vector" d="M14.22 30.82C14.22 38.92 20.79 45.49 28.89 45.49C36.99 45.49 43.56 38.92 43.56 30.82C43.56 22.72 36.99 16.15 28.89 16.15C20.79 16.15 14.22 22.72 14.22 30.82ZM21.21 30.67C21.21 26.43 24.64 23 28.89 23C33.13 23 36.57 26.43 36.57 30.67C36.57 34.92 33.13 38.35 28.89 38.35C24.64 38.35 21.21 34.92 21.21 30.67Z" fill="url(#paint_linear_235903_89_0)" fill-opacity="1.000000" fill-rule="nonzero"/>
		<path id="Vector" d="M19.43 30.82C19.43 36.04 23.67 40.28 28.89 40.28C34.11 40.28 38.34 36.04 38.34 30.82C38.34 25.6 34.11 21.37 28.89 21.37C23.67 21.37 19.43 25.6 19.43 30.82ZM21.35 30.82C21.35 26.58 24.79 23.14 29.03 23.14C33.27 23.14 36.71 26.58 36.71 30.82C36.71 35.06 33.27 38.5 29.03 38.5C24.79 38.5 21.35 35.06 21.35 30.82Z" fill="url(#paint_linear_235903_90_0)" fill-opacity="1.000000" fill-rule="nonzero"/>
		<path id="Vector" d="M26.28 30.82C26.28 32.34 27.51 33.57 29.03 33.57C30.55 33.57 31.78 32.34 31.78 30.82C31.78 29.3 30.55 28.07 29.03 28.07C27.51 28.07 26.28 29.3 26.28 30.82Z" fill="url(#paint_linear_235903_91_0)" fill-opacity="1.000000" fill-rule="nonzero"/>
		<path id="Vector" d="M27.83 30.43C27.83 29.5 28.58 28.75 29.51 28.75C30.43 28.75 31.19 29.5 31.19 30.43C31.19 31.36 30.43 32.11 29.51 32.11C28.58 32.11 27.83 31.36 27.83 30.43Z" fill="url(#paint_linear_235903_92_0)" fill-opacity="1.000000" fill-rule="nonzero"/>
	</g>
</svg>
