<svg width="56.010681" height="60.000000" viewBox="0 0 56.0107 60" fill="none" xmlns="http://www.w3.org/2000/svg" xmlns:xlink="http://www.w3.org/1999/xlink">
	<desc>
			Created with Pixso.
	</desc>
	<defs/>
	<path id="Vector" d="M34.72 8.3C34.63 8.3 34.53 8.28 34.44 8.24C34.07 8.08 33.91 7.66 34.07 7.3L37.13 0.42C37.23 0.2 37.43 0.04 37.67 0C37.91 -0.04 38.15 0.05 38.31 0.22L41.43 3.56C41.7 3.85 41.69 4.3 41.39 4.56C41.1 4.83 40.65 4.81 40.38 4.53L38 1.99L35.38 7.88C35.26 8.14 35 8.3 34.72 8.3Z" fill="#415A6B" fill-opacity="1.000000" fill-rule="nonzero"/>
	<path id="Vector" d="M49.49 21.71L6.51 21.71C6.11 21.71 5.79 21.4 5.79 21L5.79 14.55C5.79 14.16 6.11 13.84 6.51 13.84L49.49 13.84C49.89 13.84 50.21 14.16 50.21 14.55L50.21 21C50.21 21.4 49.89 21.71 49.49 21.71ZM7.23 20.29L48.77 20.29L48.77 15.27L7.23 15.27L7.23 20.29Z" fill="#415A6B" fill-opacity="1.000000" fill-rule="nonzero"/>
	<path id="Vector" d="M29.95 60L0 60L0 30.33L29.95 30.33L56.01 30.33L56.01 60L29.95 60Z" fill="#415A6B" fill-opacity="1.000000" fill-rule="nonzero"/>
	<path id="Vector" d="M1.95 33.07L31.91 33.07L56.01 33.07L56.01 30.33L29.95 30.33L0 30.33L0 60L1.95 60L1.95 33.07Z" fill="#344C59" fill-opacity="1.000000" fill-rule="nonzero"/>
	<path id="Vector" d="M49.86 1.22C51.19 2.54 50.69 4.53 50.76 7.09C48.18 7.02 46.16 7.52 44.84 6.2C44.1 5.47 44.07 4.33 44.76 3.64C45.39 3.02 46.04 3.04 47.01 3.38C46.66 2.41 46.65 1.77 47.27 1.15C47.97 0.46 49.13 0.5 49.86 1.22Z" fill="#EF3E5C" fill-opacity="1.000000" fill-rule="nonzero"/>
	<path id="Vector" d="M49.86 1.22C49.13 0.5 47.97 0.46 47.27 1.15C46.94 1.48 46.79 1.81 46.77 2.19C47.46 1.83 48.35 1.96 48.96 2.56C50.05 3.63 49.91 5.17 49.87 7.09C50.16 7.09 50.45 7.09 50.76 7.09C50.69 4.53 51.19 2.54 49.86 1.22Z" fill="#DD2C52" fill-opacity="1.000000" fill-rule="nonzero"/>
	<path id="Vector" d="M34.75 5.28C35.77 6.29 35.77 7.92 34.75 8.93C33.74 9.94 32.09 9.94 31.07 8.93C30.05 7.93 30.05 6.29 31.07 5.29C32.08 4.28 33.73 4.27 34.75 5.28Z" fill="#415A6B" fill-opacity="1.000000" fill-rule="nonzero"/>
	<path id="Vector" d="M32.67 9.46C31.65 8.46 31.65 6.82 32.66 5.81C33.17 5.31 33.83 5.06 34.49 5.06C33.46 4.28 32 4.36 31.07 5.29C30.05 6.29 30.05 7.93 31.07 8.93C31.59 9.44 32.26 9.69 32.93 9.69C32.84 9.62 32.75 9.54 32.67 9.46Z" fill="#344C59" fill-opacity="1.000000" fill-rule="nonzero"/>
	<path id="Vector" d="M25.57 3.64C26.26 4.33 26.23 5.47 25.49 6.2C24.17 7.52 22.15 7.02 19.57 7.09C19.64 4.53 19.14 2.54 20.47 1.22C21.2 0.5 22.36 0.46 23.06 1.15C23.68 1.77 23.66 2.41 23.31 3.38C24.29 3.03 24.94 3.02 25.57 3.64Z" fill="#EF3E5C" fill-opacity="1.000000" fill-rule="nonzero"/>
	<path id="Vector" d="M21.48 2.58C22.05 2.01 22.88 1.87 23.55 2.16C23.53 1.79 23.38 1.47 23.06 1.15C22.36 0.46 21.2 0.5 20.47 1.22C19.14 2.54 19.64 4.53 19.57 7.09C19.91 7.08 20.25 7.08 20.57 7.09C20.52 5.18 20.39 3.65 21.48 2.58Z" fill="#DD2C52" fill-opacity="1.000000" fill-rule="nonzero"/>
	<path id="Vector" d="M8.08 1.5C9.95 3.35 9.25 6.15 9.35 9.74C5.72 9.64 2.9 10.33 1.03 8.49C0 7.47 -0.04 5.86 0.93 4.89C1.81 4.02 2.72 4.05 4.09 4.53C3.6 3.17 3.57 2.28 4.45 1.4C5.43 0.44 7.05 0.48 8.08 1.5Z" fill="#EF3E5C" fill-opacity="1.000000" fill-rule="nonzero"/>
	<path id="Vector" d="M8.08 1.5C7.05 0.48 5.43 0.44 4.45 1.4C3.86 1.99 3.68 2.59 3.77 3.33C3.8 3.31 3.82 3.29 3.84 3.26C4.82 2.3 6.44 2.34 7.47 3.36C9 4.88 8.81 7.03 8.74 9.73C8.94 9.73 9.15 9.74 9.35 9.74C9.25 6.15 9.95 3.35 8.08 1.5Z" fill="#DD2C52" fill-opacity="1.000000" fill-rule="nonzero"/>
	<path id="Vector" d="M56.01 20.01L56.01 30.33L29.95 30.33L0 30.33L0 20.01L6.51 20.01L49.49 20.01L56.01 20.01Z" fill="#F78F4B" fill-opacity="1.000000" fill-rule="nonzero"/>
	<path id="Vector" d="M1.95 22.01L8.46 22.01L51.45 22.01L56.01 22.01L56.01 20.01L49.49 20.01L6.51 20.01L0 20.01L0 30.33L1.95 30.33L1.95 22.01Z" fill="#E2783D" fill-opacity="1.000000" fill-rule="nonzero"/>
	<path id="Vector" d="M50.79 44.52C50.79 49.5 46.71 53.55 41.68 53.55C36.64 53.55 32.56 49.5 32.56 44.52C32.56 39.53 36.64 35.49 41.68 35.49C46.71 35.49 50.79 39.53 50.79 44.52Z" fill="#EF3E5C" fill-opacity="1.000000" fill-rule="evenodd"/>
	<path id="Vector" d="M33.42 46.37C33.42 41.38 37.5 37.34 42.54 37.34C45.84 37.34 48.73 39.07 50.33 41.67C49.13 38.08 45.71 35.49 41.68 35.49C36.64 35.49 32.56 39.53 32.56 44.52C32.56 46.24 33.04 47.84 33.89 49.21C33.59 48.31 33.42 47.36 33.42 46.37Z" fill="#DD2C52" fill-opacity="1.000000" fill-rule="nonzero"/>
	<path id="Vector" d="M23.44 49.68L26.05 49.68L26.05 52.26L23.44 52.26L23.44 49.68Z" fill="#FFFFFF" fill-opacity="1.000000" fill-rule="evenodd"/>
	<path id="Vector" d="M23.44 45.81L26.05 45.81L26.05 48.39L23.44 48.39L23.44 45.81Z" fill="#FFFFFF" fill-opacity="1.000000" fill-rule="evenodd"/>
	<path id="Vector" d="M23.44 41.94L26.05 41.94L26.05 44.52L23.44 44.52L23.44 41.94Z" fill="#FFFFFF" fill-opacity="1.000000" fill-rule="evenodd"/>
	<path id="Vector" d="M23.44 38.07L26.05 38.07L26.05 40.65L23.44 40.65L23.44 38.07Z" fill="#FFFFFF" fill-opacity="1.000000" fill-rule="evenodd"/>
	<path id="Vector" d="M16.93 49.68L22.14 49.68L22.14 52.26L16.93 52.26L16.93 49.68Z" fill="#FFFFFF" fill-opacity="1.000000" fill-rule="evenodd"/>
	<path id="Vector" d="M19.53 45.81L22.14 45.81L22.14 48.39L19.53 48.39L19.53 45.81Z" fill="#FFFFFF" fill-opacity="1.000000" fill-rule="evenodd"/>
	<path id="Vector" d="M16.93 41.94L22.14 41.94L22.14 44.52L16.93 44.52L16.93 41.94Z" fill="#FFFFFF" fill-opacity="1.000000" fill-rule="evenodd"/>
	<path id="Vector" d="M19.53 38.07L22.14 38.07L22.14 40.65L19.53 40.65L19.53 38.07Z" fill="#FFFFFF" fill-opacity="1.000000" fill-rule="evenodd"/>
	<path id="Vector" d="M15.63 45.81L18.23 45.81L18.23 48.39L15.63 48.39L15.63 45.81Z" fill="#FFFFFF" fill-opacity="1.000000" fill-rule="evenodd"/>
	<path id="Vector" d="M15.63 38.07L18.23 38.07L18.23 40.65L15.63 40.65L15.63 38.07Z" fill="#FFFFFF" fill-opacity="1.000000" fill-rule="evenodd"/>
	<path id="Vector" d="M13.02 49.68L15.63 49.68L15.63 52.26L13.02 52.26L13.02 49.68Z" fill="#FFFFFF" fill-opacity="1.000000" fill-rule="evenodd"/>
	<path id="Vector" d="M13.02 41.94L15.63 41.94L15.63 44.52L13.02 44.52L13.02 41.94Z" fill="#FFFFFF" fill-opacity="1.000000" fill-rule="evenodd"/>
	<path id="Vector" d="M9.11 45.81L14.32 45.81L14.32 48.39L9.11 48.39L9.11 45.81Z" fill="#FFFFFF" fill-opacity="1.000000" fill-rule="evenodd"/>
	<path id="Vector" d="M9.11 38.07L14.32 38.07L14.32 40.65L9.11 40.65L9.11 38.07Z" fill="#FFFFFF" fill-opacity="1.000000" fill-rule="evenodd"/>
	<path id="Vector" d="M9.11 49.68L11.72 49.68L11.72 52.26L9.11 52.26L9.11 49.68Z" fill="#FFFFFF" fill-opacity="1.000000" fill-rule="evenodd"/>
	<path id="Vector" d="M9.11 41.94L11.72 41.94L11.72 44.52L9.11 44.52L9.11 41.94Z" fill="#FFFFFF" fill-opacity="1.000000" fill-rule="evenodd"/>
	<path id="Vector" d="M5.21 49.68L7.81 49.68L7.81 52.26L5.21 52.26L5.21 49.68Z" fill="#FFFFFF" fill-opacity="1.000000" fill-rule="evenodd"/>
	<path id="Vector" d="M5.21 45.81L7.81 45.81L7.81 48.39L5.21 48.39L5.21 45.81Z" fill="#FFFFFF" fill-opacity="1.000000" fill-rule="evenodd"/>
	<path id="Vector" d="M5.21 41.94L7.81 41.94L7.81 44.52L5.21 44.52L5.21 41.94Z" fill="#FFFFFF" fill-opacity="1.000000" fill-rule="evenodd"/>
	<path id="Vector" d="M5.21 38.07L7.81 38.07L7.81 40.65L5.21 40.65L5.21 38.07Z" fill="#FFFFFF" fill-opacity="1.000000" fill-rule="evenodd"/>
	<path id="Vector" d="M50.79 25.88L5.21 25.88C4.81 25.88 4.49 25.56 4.49 25.17C4.49 24.77 4.81 24.46 5.21 24.46L50.79 24.46C51.19 24.46 51.51 24.77 51.51 25.17C51.51 25.56 51.19 25.88 50.79 25.88Z" fill="#E2783D" fill-opacity="1.000000" fill-rule="nonzero"/>
	<path id="Vector" d="M44.28 27.17C43.89 27.17 43.56 26.85 43.56 26.46L43.56 23.88C43.56 23.48 43.89 23.17 44.28 23.17C44.68 23.17 45 23.48 45 23.88L45 26.46C45 26.85 44.68 27.17 44.28 27.17Z" fill="#E2783D" fill-opacity="1.000000" fill-rule="nonzero"/>
	<path id="Vector" d="M49.49 42.65L37.77 42.65C37.37 42.65 37.05 42.33 37.05 41.94C37.05 41.54 37.37 41.23 37.77 41.23L49.49 41.23C49.89 41.23 50.21 41.54 50.21 41.94C50.21 42.33 49.89 42.65 49.49 42.65Z" fill="#FFFFFF" fill-opacity="1.000000" fill-rule="nonzero"/>
	<path id="Vector" d="M50.35 46.6L34.72 46.6C34.33 46.6 34.01 46.28 34.01 45.89C34.01 45.5 34.33 45.18 34.72 45.18L50.35 45.18C50.75 45.18 51.07 45.5 51.07 45.89C51.07 46.28 50.75 46.6 50.35 46.6Z" fill="#FFFFFF" fill-opacity="1.000000" fill-rule="nonzero"/>
	<path id="Vector" d="M44.28 53.55C43.89 53.55 43.56 53.21 43.56 52.79L43.56 36.25C43.56 35.83 43.89 35.49 44.28 35.49C44.68 35.49 45 35.83 45 36.25L45 52.79C45 53.21 44.68 53.55 44.28 53.55Z" fill="#FFFFFF" fill-opacity="1.000000" fill-rule="nonzero"/>
	<path id="Vector" d="M29.95 39.05C29.56 39.05 29.24 38.74 29.24 38.34L29.24 31.89C29.24 31.5 29.56 31.18 29.95 31.18C30.35 31.18 30.67 31.5 30.67 31.89L30.67 38.34C30.67 38.74 30.35 39.05 29.95 39.05Z" fill="#344C59" fill-opacity="1.000000" fill-rule="nonzero"/>
	<path id="Vector" d="M41.68 54.26C36.25 54.26 31.84 49.89 31.84 44.52C31.84 39.14 36.25 34.77 41.68 34.77C47.1 34.77 51.51 39.14 51.51 44.52C51.51 49.89 47.1 54.26 41.68 54.26ZM41.68 36.2C37.05 36.2 33.28 39.93 33.28 44.52C33.28 49.1 37.05 52.83 41.68 52.83C46.31 52.83 50.08 49.1 50.08 44.52C50.08 39.93 46.31 36.2 41.68 36.2Z" fill="#FFFFFF" fill-opacity="1.000000" fill-rule="nonzero"/>
</svg>
